<?xml version="1.0" encoding="utf-8"?>
<svg xmlns="http://www.w3.org/2000/svg" width="120" height="36" viewBox="0 0 120 36"><defs><style>.a{fill:#d50032;}.b{fill:#fff;}.c{fill:#cb1334;}</style></defs><path class="a" d="M108.719,519.944q.148-.178.292-.36c.062-.079.124-.156.185-.235.146-.191.289-.384.428-.581l.021-.028a18.053,18.053,0,0,0,2.317-16.123c-.034-.1-.066-.2-.1-.3s-.07-.188-.106-.281c-.075-.2-.151-.392-.232-.585l-.04-.094a18.089,18.089,0,0,0-12.108-10.373,3.569,3.569,0,0,1,.122.85,3.361,3.361,0,1,1-6.723,0,3.254,3.254,0,0,1,.3-1.328A17.977,17.977,0,0,0,89.516,525.6V522.87h2.062c1.36,0,1.9-.648,1.9-1.927V497.9h5.353v23.386a6,6,0,0,1-2.469,5.049,18.047,18.047,0,0,0,11.853-5.809l.077-.086C108.436,520.276,108.578,520.111,108.719,519.944Z" transform="translate(-76.785 -490.4)"/><path class="a" d="M147.421,508.4c0-.1,0-.191-.007-.287a18.022,18.022,0,0,0-17.363-17.659v22.357c0,1.282.537,1.926,1.9,1.926h2.057v4.524h-3.054c-4.409,0-6.269-3.089-6.269-6.124V491.042a18.024,18.024,0,0,0-13.31,15.536v.009a18.342,18.342,0,0,0-.092,1.836c0,.3.007.605.022.9a18.042,18.042,0,0,0,17.106,17.061h.011q.463.024.931.024c.073,0,.145,0,.219-.006A18.038,18.038,0,0,0,147.421,508.4Z" transform="translate(-69.36 -490.412)"/><path class="a" d="M163.858,490.419A17.99,17.99,0,1,0,181.932,508.4,18.021,18.021,0,0,0,163.858,490.419Zm-1.733,22.609a3.714,3.714,0,0,0,3.05,1.4,4.341,4.341,0,0,0,3.459-1.685l3.625,3.564a9.162,9.162,0,0,1-7.084,2.913c-4.281,0-9.6-2.3-9.6-10.949s5.323-10.909,9.6-10.909a9.127,9.127,0,0,1,7.084,2.867l-3.625,3.6a4.327,4.327,0,0,0-3.459-1.673,3.712,3.712,0,0,0-3.05,1.4c-.817,1.016-1.2,2.449-1.2,4.711S161.309,512.005,162.125,513.028Z" transform="translate(-61.932 -490.419)"/><path class="b" d="M93.322,495.219a3.355,3.355,0,0,0,3.342-3.366,3.568,3.568,0,0,0-.122-.85,18.227,18.227,0,0,0-4.519-.567q-.9,0-1.784.088a3.254,3.254,0,0,0-.3,1.328A3.386,3.386,0,0,0,93.322,495.219Z" transform="translate(-73.953 -490.415)"/><path class="b" d="M96.574,520V496.612H91.221v23.046c0,1.279-.538,1.927-1.9,1.927H87.261v2.731a18.158,18.158,0,0,0,5.338.8c.508,0,1.009-.027,1.506-.068A6,6,0,0,0,96.574,520Z" transform="translate(-74.53 -489.115)"/><path class="b" d="M128.583,519.26h3.054v-4.524H129.58c-1.366,0-1.9-.644-1.9-1.926V490.453c-.232-.009-.464-.017-.7-.017a18.126,18.126,0,0,0-4.665.609v22.091C122.314,516.171,124.175,519.26,128.583,519.26Z" transform="translate(-66.986 -490.415)"/><path class="b" d="M163.444,500.95a4.327,4.327,0,0,1,3.459,1.673l3.625-3.6a9.127,9.127,0,0,0-7.084-2.866c-4.281,0-9.6,2.25-9.6,10.909s5.323,10.949,9.6,10.949a9.162,9.162,0,0,0,7.084-2.913l-3.625-3.564a4.341,4.341,0,0,1-3.459,1.685,3.714,3.714,0,0,1-3.05-1.4c-.817-1.023-1.2-2.5-1.2-4.759s.382-3.7,1.2-4.711A3.711,3.711,0,0,1,163.444,500.95Z" transform="translate(-60.201 -489.212)"/><line class="c" y1="0.017" transform="translate(55.328 0.612)"/><line class="c" y2="0.018" transform="translate(60.691 0.02)"/></svg>