<?xml version="1.0" encoding="utf-8"?>
<svg xmlns="http://www.w3.org/2000/svg" width="52.5" height="60" viewBox="0 0 52.5 60"><defs><style>.a{fill:#d50032;}</style></defs><path class="a" d="M13.125,51.125h3.75a3.753,3.753,0,0,0,3.75-3.75v-3.75a3.753,3.753,0,0,0-3.75-3.75h-3.75a3.753,3.753,0,0,0-3.75,3.75v3.75A3.753,3.753,0,0,0,13.125,51.125Zm0-7.5h3.75v3.75h-3.75Zm0-22.5h3.75a3.753,3.753,0,0,0,3.75-3.75v-3.75a3.753,3.753,0,0,0-3.75-3.75h-3.75a3.753,3.753,0,0,0-3.75,3.75v3.75A3.753,3.753,0,0,0,13.125,21.125Zm0-7.5h3.75v3.75h-3.75ZM48.75.5h-45A3.753,3.753,0,0,0,0,4.25v52.5A3.753,3.753,0,0,0,3.75,60.5h45a3.753,3.753,0,0,0,3.75-3.75V4.25A3.753,3.753,0,0,0,48.75.5Zm0,56.25h-45V4.25h45ZM25.312,17.375h15a.94.94,0,0,0,.937-.937V14.563a.94.94,0,0,0-.937-.937h-15a.94.94,0,0,0-.937.938v1.875A.94.94,0,0,0,25.312,17.375Zm0,15h15a.94.94,0,0,0,.937-.937V29.563a.94.94,0,0,0-.937-.937h-15a.94.94,0,0,0-.937.937v1.875A.94.94,0,0,0,25.312,32.375Zm0,15h15a.94.94,0,0,0,.937-.937V44.563a.94.94,0,0,0-.937-.937h-15a.94.94,0,0,0-.937.937v1.875A.94.94,0,0,0,25.312,47.375ZM13.9,34.063a.63.63,0,0,0,.891,0l7.523-7.453a.63.63,0,0,0,0-.891l-1.477-1.488a.63.63,0,0,0-.891,0l-5.578,5.531-2.414-2.449a.63.63,0,0,0-.891,0L9.574,28.789a.629.629,0,0,0,0,.891Z" transform="translate(0 -0.5)"/></svg>