<?xml version="1.0" encoding="utf-8"?>
<svg xmlns="http://www.w3.org/2000/svg" width="60.001" height="60.011" viewBox="0 0 60.001 60.011"><defs><style>.a{fill:#d50032;}</style></defs><path class="a" d="M58.9,46.145,44.32,31.555a9.373,9.373,0,0,0-11.8-1.184L22.5,20.352v-8.6L7.5.5,0,8,11.25,23h8.6l10.02,10.02a9.372,9.372,0,0,0,1.2,11.8l14.59,14.59a3.746,3.746,0,0,0,2.648,1.1,3.7,3.7,0,0,0,2.648-1.1l7.957-7.957A3.766,3.766,0,0,0,58.9,46.145ZM18.75,19.027v.223H13.125L4.957,8.352,7.852,5.457l10.9,8.168ZM48.293,56.75,33.715,42.16a5.618,5.618,0,1,1,7.945-7.945L56.25,48.793ZM7.5,51.125A1.875,1.875,0,1,0,9.375,49.25,1.881,1.881,0,0,0,7.5,51.125ZM32.437,8.34a13.82,13.82,0,0,1,9.82-4.09,14.13,14.13,0,0,1,2.426.211l-8.121,8.133L38.18,22.32l9.738,1.617,8.121-8.121A13.808,13.808,0,0,1,52.16,28.063a13.63,13.63,0,0,1-3.516,2.52l2.766,2.766a16.968,16.968,0,0,0,3.4-2.637,17.541,17.541,0,0,0,4.652-16.793,3.173,3.173,0,0,0-2.238-2.3,3.218,3.218,0,0,0-3.129.82L46.605,19.93l-5.18-.867-.867-5.18,7.488-7.488a3.192,3.192,0,0,0-1.488-5.355A17.571,17.571,0,0,0,29.777,5.691a17.194,17.194,0,0,0-3.527,5.156v7.945l2.59,2.59A13.8,13.8,0,0,1,32.437,8.34Zm-19.9,46.9a5.281,5.281,0,0,1-7.289,0,5.17,5.17,0,0,1,0-7.289L22.371,30.828,19.723,28.18,2.6,45.3A8.9,8.9,0,0,0,8.895,60.5a8.809,8.809,0,0,0,6.293-2.613l11.93-11.918A13.582,13.582,0,0,1,25.3,42.477Z" transform="translate(0 -0.5)"/></svg>