<?xml version="1.0" encoding="utf-8"?>
<svg xmlns="http://www.w3.org/2000/svg" width="75" height="60" viewBox="0 0 75 60"><defs><style>.a{fill:#d50032;}</style></defs><path class="a" d="M73.125,26.75H56.25V2.375A1.881,1.881,0,0,0,54.375.5H20.625A1.881,1.881,0,0,0,18.75,2.375V26.75H1.875A1.881,1.881,0,0,0,0,28.625v30A1.881,1.881,0,0,0,1.875,60.5h71.25A1.881,1.881,0,0,0,75,58.625v-30A1.881,1.881,0,0,0,73.125,26.75ZM52.5,30.5H60v7.3l-3.75-1.254L52.5,37.8ZM41.25,4.25v7.3L37.5,10.3l-3.75,1.254V4.25Zm-18.75,0H30v12.5l7.5-2.5,7.5,2.5V4.25h7.5v22.5h-30Zm0,26.25v7.3l-3.75-1.254L15,37.8V30.5Zm-18.75,0h7.5V43l7.5-2.5,7.5,2.5V30.5h9.375V56.75H3.75Zm67.5,26.25H39.375V30.5H48.75V43l7.5-2.5,7.5,2.5V30.5h7.5Z" transform="translate(0 -0.5)"/></svg>