<svg xmlns="http://www.w3.org/2000/svg" width="21.012" height="21.007"><path d="M10.504 5.117a5.377 5.377 0 00-5.381 5.391 5.377 5.377 0 005.381 5.381 5.377 5.377 0 005.391-5.381 5.377 5.377 0 00-5.391-5.391zm0 8.891a3.508 3.508 0 01-3.5-3.5 3.5 3.5 0 013.5-3.5 3.5 3.5 0 013.506 3.5 3.508 3.508 0 01-3.506 3.5zM17.367 4.9a1.256 1.256 0 00-1.256-1.256A1.256 1.256 0 0014.855 4.9a1.253 1.253 0 001.256 1.256 1.253 1.253 0 001.26-1.259zm3.567 1.275a6.217 6.217 0 00-1.7-4.4 6.258 6.258 0 00-4.4-1.7c-1.734-.1-6.933-.1-8.667 0a6.248 6.248 0 00-4.4 1.692 6.237 6.237 0 00-1.7 4.4c-.1 1.734-.1 6.933 0 8.667a6.217 6.217 0 001.7 4.4 6.266 6.266 0 004.4 1.7c1.734.1 6.933.1 8.667 0a6.217 6.217 0 004.4-1.7 6.258 6.258 0 001.7-4.4c.103-1.734.103-6.926.004-8.662zm-2.236 10.521a3.545 3.545 0 01-2 2c-1.38.545-4.661.418-6.194.418s-4.814.122-6.192-.422a3.545 3.545 0 01-2-2c-.541-1.384-.414-4.661-.414-6.184s-.122-4.814.422-6.192a3.545 3.545 0 012-2c1.383-.548 4.664-.422 6.192-.422s4.814-.122 6.192.422a3.545 3.545 0 012 2c.548 1.383.422 4.664.422 6.192s.12 4.809-.428 6.188z" fill="#fff"/></svg>